<svg id="Layer_1" data-name="Layer 1" xmlns="http://www.w3.org/2000/svg" viewBox="0 0 518.96 462.95"><defs><style>.cls-1{fill:#1f3f62;}.cls-2{fill:#29c2e6;}.cls-3{fill:#4b6ab2;}.cls-4{fill:#34489e;}.cls-5{fill:#4f2e91;}.cls-6{fill:none;stroke:#1f3f62;stroke-miterlimit:10;}.cls-7{font-size:11px;fill:#58595b;font-weight:700;}.cls-10,.cls-7{font-family:Panton;}.cls-8{white-space:pre;}.cls-9{letter-spacing:-1px;}.cls-10{font-size:10px;fill:#29c3e7;}</style></defs><title>road-map</title><rect class="cls-1" x="143.97" y="69.38" width="4.38" height="4.37" rx="2.19" ry="2.19"/><rect class="cls-1" x="143.97" y="44.38" width="4.37" height="4.37" rx="2.19" ry="2.19"/><rect class="cls-1" x="143.97" y="188.96" width="4.38" height="4.38" rx="2.19" ry="2.19"/><rect class="cls-1" x="253.97" y="188.96" width="4.38" height="4.38" rx="2.19" ry="2.19"/><rect class="cls-1" x="34.32" y="189.04" width="4.38" height="4.38" rx="2.19" ry="2.19"/><rect class="cls-1" x="198.97" y="270.39" width="4.38" height="4.38" rx="2.19" ry="2.19"/><rect class="cls-1" x="88.64" y="270.39" width="4.37" height="4.38" rx="2.19" ry="2.19"/><rect class="cls-1" x="253.97" y="118.67" width="4.38" height="4.38" rx="2.19" ry="2.19"/><rect class="cls-1" x="253.97" y="143.36" width="4.37" height="4.37" rx="2.19" ry="2.19"/><rect class="cls-1" x="308.97" y="270.39" width="4.37" height="4.38" rx="2.19" ry="2.19"/><rect class="cls-1" x="253.97" y="76.73" width="4.37" height="4.37" rx="2.19" ry="2.19"/><rect class="cls-1" x="143.97" y="130.51" width="4.38" height="4.38" rx="2.19" ry="2.19"/><rect class="cls-1" x="143.97" y="100.45" width="4.38" height="4.38" rx="2.19" ry="2.19"/><rect class="cls-1" x="88.64" y="317.67" width="4.37" height="4.38" rx="2.19" ry="2.19"/><rect class="cls-1" x="253.97" y="51.04" width="4.38" height="4.38" rx="2.19" ry="2.19"/><rect class="cls-1" x="198.97" y="342.7" width="4.38" height="4.37" rx="2.19" ry="2.19"/><rect class="cls-1" x="198.97" y="317.7" width="4.38" height="4.37" rx="2.19" ry="2.19"/><rect class="cls-1" x="88.64" y="342.67" width="4.37" height="4.38" rx="2.19" ry="2.19"/><rect class="cls-1" x="308.97" y="318.7" width="4.37" height="4.37" rx="2.19" ry="2.19"/><rect class="cls-1" x="198.97" y="386.67" width="4.38" height="4.38" rx="2.19" ry="2.19"/><rect class="cls-1" x="308.97" y="343.7" width="4.37" height="4.38" rx="2.19" ry="2.19"/><rect class="cls-1" x="198.97" y="411.67" width="4.38" height="4.38" rx="2.19" ry="2.19"/><rect class="cls-2" x="36.16" y="222.66" width="110" height="18.41"/><rect class="cls-3" x="146.16" y="222.66" width="110" height="18.41"/><rect class="cls-4" x="256.16" y="222.66" width="110" height="18.41"/><rect class="cls-5" x="366.16" y="222.66" width="110" height="18.41"/><line class="cls-6" x1="36.51" y1="241.23" x2="36.51" y2="191.23"/><text class="cls-7" transform="translate(0 164.65)">D<tspan x="7.33" y="0">a</tspan><tspan x="12.99" y="0">te </tspan><tspan x="25.59" y="0">o</tspan><tspan x="31.55" y="0">f</tspan><tspan class="cls-8" x="35.38" y="0"> Phase 1</tspan><tspan x="14.19" y="14">(</tspan><tspan x="17.32" y="14">P</tspan><tspan x="24.2" y="14">r</tspan><tspan x="27.94" y="14">e-sal</tspan><tspan x="52.25" y="14">e</tspan><tspan x="57.9" y="14">)</tspan></text><line class="cls-6" x1="90.83" y1="272.57" x2="90.83" y2="222.57"/><line class="cls-6" x1="90.83" y1="344.86" x2="90.83" y2="319.86"/><text class="cls-7" transform="translate(51 364.07)">S<tspan x="6.95" y="0">ystem upg</tspan><tspan x="58.29" y="0">r</tspan><tspan x="62.08" y="0">ade</tspan></text><text class="cls-7" transform="translate(48.56 292.57)">L<tspan x="5.76" y="0">ending pl</tspan><tspan x="49.28" y="0">a</tspan><tspan x="54.94" y="0">t</tspan><tspan x="59.22" y="0">f</tspan><tspan x="63.22" y="0">o</tspan><tspan x="69.19" y="0">r</tspan><tspan x="73.03" y="0">m </tspan><tspan x="14.12" y="14">r</tspan><tspan x="17.86" y="14">egist</tspan><tspan x="42.08" y="14">r</tspan><tspan x="45.88" y="14">a</tspan><tspan x="51.54" y="14">tion</tspan></text><line class="cls-6" x1="146.16" y1="241.15" x2="146.16" y2="191.15"/><text class="cls-7" transform="translate(113.72 89.3)">Phase 2 <tspan x="41.61" y="0">(</tspan><tspan x="44.75" y="0">IC</tspan><tspan x="54.69" y="0">O</tspan><tspan x="61.84" y="0">)</tspan></text><line class="cls-6" x1="201.16" y1="272.57" x2="201.16" y2="222.57"/><line class="cls-6" x1="146.16" y1="71.57" x2="146.16" y2="46.57"/><line class="cls-6" x1="146.16" y1="132.7" x2="146.16" y2="102.64"/><text class="cls-7" transform="translate(320.55 96.23)">A<tspan x="7.14" y="0">dditional security</tspan><tspan class="cls-8" x="4.71" y="14"> laye</tspan><tspan x="27.46" y="14">r</tspan><tspan x="31.3" y="14">s a</tspan><tspan x="44.96" y="14">r</tspan><tspan x="48.7" y="14">e added</tspan></text><text class="cls-7" transform="translate(158.89 292.57)">L<tspan x="5.76" y="0">ending pl</tspan><tspan x="49.28" y="0">a</tspan><tspan x="54.94" y="0">t</tspan><tspan x="59.22" y="0">f</tspan><tspan x="63.22" y="0">o</tspan><tspan x="69.19" y="0">r</tspan><tspan x="73.03" y="0">m </tspan><tspan x="3.06" y="14">fully ope</tspan><tspan x="44.81" y="14">r</tspan><tspan x="48.6" y="14">a</tspan><tspan x="54.27" y="14">tional</tspan></text><line class="cls-6" x1="201.16" y1="344.89" x2="201.16" y2="319.89"/><text class="cls-7" transform="translate(148.55 365.07)"><tspan class="cls-9">T</tspan><tspan x="5.19" y="0">r</tspan><tspan x="8.99" y="0">ading on </tspan><tspan x="52.11" y="0">E</tspan><tspan x="58.27" y="0">the</tspan><tspan x="74.56" y="0">r</tspan><tspan x="78.32" y="0">delta,</tspan><tspan x="18.47" y="14">Coin</tspan><tspan x="40.11" y="14">e</tspan><tspan x="45.87" y="14">x</tspan><tspan x="51.3" y="14">change</tspan></text><line class="cls-6" x1="256.16" y1="241.15" x2="256.16" y2="191.15"/><text class="cls-7" transform="translate(215.98 96.23)"><tspan class="cls-9">T</tspan><tspan x="5.19" y="0">r</tspan><tspan x="8.99" y="0">ading on </tspan><tspan x="52.11" y="0">o</tspan><tspan x="58.04" y="0">the</tspan><tspan x="74.33" y="0">r</tspan><tspan x="77.96" y="0"> </tspan><tspan x="14.1" y="14">e</tspan><tspan x="19.86" y="14">x</tspan><tspan x="25.28" y="14">changes</tspan></text><text class="cls-7" transform="translate(150.74 430.58)">P<tspan x="6.88" y="0">r</tspan><tspan x="10.62" y="0">edicted price: $8.5</tspan></text><line class="cls-6" x1="256.16" y1="145.86" x2="256.16" y2="120.86"/><line class="cls-6" x1="201.16" y1="413.86" x2="201.16" y2="388.86"/><line class="cls-6" x1="311.16" y1="272.57" x2="311.16" y2="222.57"/><text class="cls-7" transform="translate(259.33 294.56)">P<tspan x="6.88" y="0">r</tspan><tspan x="10.62" y="0">epa</tspan><tspan x="28.19" y="0">r</tspan><tspan x="31.99" y="0">a</tspan><tspan x="37.65" y="0">tion</tspan><tspan x="56.53" y="0"> </tspan><tspan x="58.72" y="0">to launch</tspan><tspan x="13.1" y="14">FL</tspan><tspan x="25.11" y="14">A</tspan><tspan x="32.2" y="14">SHONE.NE</tspan><tspan x="84.61" y="14">T</tspan></text><line class="cls-6" x1="311.16" y1="345.89" x2="311.16" y2="320.89"/><text class="cls-7" transform="translate(231.35 163.57)">Listing on <tspan x="-12.5" y="14">Coi</tspan><tspan x="3.05" y="14">n</tspan><tspan x="9.08" y="14">Mar</tspan><tspan x="27.58" y="14">k</tspan><tspan x="33.24" y="14">e</tspan><tspan x="39.13" y="14">tCap</tspan></text><text class="cls-7" transform="translate(206.98 41.08)">P<tspan x="6.88" y="0">r</tspan><tspan x="10.62" y="0">edicted price: $</tspan><tspan x="84.9" y="0">2</tspan><tspan x="91.43" y="0">4</tspan></text><line class="cls-6" x1="256.16" y1="78.57" x2="256.16" y2="53.57"/><text class="cls-7" transform="translate(281.26 365.07)">F<tspan x="6.12" y="0">i</tspan><tspan x="8.66" y="0">r</tspan><tspan x="12.5" y="0">st look </tspan><tspan x="47.45" y="0">a</tspan><tspan x="53.12" y="0">t </tspan><tspan x="-1.79" y="14">mobile</tspan><tspan x="30.3" y="14"> </tspan><tspan x="32.49" y="14">w</tspan><tspan x="40.48" y="14">all</tspan><tspan x="51.42" y="14">e</tspan><tspan x="57.32" y="14">t</tspan></text><text class="cls-10" transform="translate(13.63 147.63)">N<tspan x="6.98" y="0">o</tspan><tspan x="12.33" y="0">v</tspan><tspan x="17.41" y="0">. 2017</tspan></text><text class="cls-10" transform="translate(57.16 381.05)">N<tspan x="6.98" y="0">o</tspan><tspan x="12.33" y="0">v</tspan><tspan class="cls-8" x="17.58" y="0"> - Dec. 2017</tspan></text><text class="cls-7" transform="translate(113.64 33.07)">Phase 3 <tspan x="41.78" y="0">(</tspan><tspan x="44.91" y="0">IC</tspan><tspan x="54.86" y="0">O</tspan><tspan x="62.01" y="0">)</tspan></text><text class="cls-10" transform="translate(124.47 13.85)">Dec. 2017</text><text class="cls-7" transform="translate(105.1 149.94)">L<tspan x="5.76" y="0">ending pl</tspan><tspan x="49.28" y="0">a</tspan><tspan x="54.94" y="0">t</tspan><tspan x="59.22" y="0">f</tspan><tspan x="63.22" y="0">o</tspan><tspan x="69.19" y="0">r</tspan><tspan x="73.03" y="0">m</tspan><tspan x="-0.07" y="14">deposits enabled</tspan><tspan x="6.56" y="28">FLX, ETH, </tspan><tspan x="55.39" y="28">B</tspan><tspan x="62.41" y="28">T</tspan><tspan x="68.52" y="28">C</tspan></text><text class="cls-10" transform="translate(151.47 446.35)">Dec -<tspan x="23.3" y="0"> </tspan><tspan x="24.88" y="0">J</tspan><tspan x="30.69" y="0">an. 2017 - 2018</tspan></text><text class="cls-10" transform="translate(233.47 23.35)">J<tspan x="5.81" y="0">an. 2018</tspan></text><text class="cls-10" transform="translate(290.97 396.55)">Q1. 2018</text><rect class="cls-1" x="363.97" y="188.96" width="4.37" height="4.38" rx="2.19" ry="2.19"/><line class="cls-6" x1="366.16" y1="241.15" x2="366.16" y2="191.15"/><text class="cls-7" transform="translate(342.32 163.57)">Launch <tspan x="37.88" y="0">o</tspan><tspan x="43.85" y="0">f</tspan><tspan x="-14.89" y="14">FL</tspan><tspan x="-2.88" y="14">A</tspan><tspan x="4.2" y="14">SHONE.NE</tspan><tspan x="56.62" y="14">T</tspan></text><rect class="cls-1" x="363.97" y="118.82" width="4.37" height="4.37" rx="2.19" ry="2.19"/><rect class="cls-1" x="363.97" y="143.52" width="4.38" height="4.38" rx="2.19" ry="2.19"/><line class="cls-6" x1="366.16" y1="146.01" x2="366.16" y2="121.01"/><rect class="cls-1" x="418.97" y="270.47" width="4.38" height="4.38" rx="2.19" ry="2.19"/><line class="cls-6" x1="421.16" y1="272.66" x2="421.16" y2="222.66"/><text class="cls-10" transform="translate(346.47 8.55)">Q1. 2018</text><text class="cls-7" transform="translate(334.59 26.07)">M<tspan x="8.85" y="0">obile</tspan><tspan x="31.86" y="0"> </tspan><tspan x="34.04" y="0">w</tspan><tspan x="42.03" y="0">all</tspan><tspan x="52.98" y="0">e</tspan><tspan x="58.87" y="0">t</tspan><tspan x="13.91" y="14">r</tspan><tspan x="17.65" y="14">elease</tspan></text><rect class="cls-1" x="363.97" y="76.73" width="4.38" height="4.37" rx="2.19" ry="2.19"/><rect class="cls-1" x="363.97" y="51.04" width="4.37" height="4.38" rx="2.19" ry="2.19"/><line class="cls-6" x1="366.16" y1="78.57" x2="366.16" y2="53.57"/><text class="cls-7" transform="translate(400.12 294.56)">W<tspan x="9.53" y="0">ebsite </tspan><tspan x="-10.92" y="14">imp</tspan><tspan x="6.68" y="14">r</tspan><tspan x="10.42" y="14">o</tspan><tspan x="16.24" y="14">v</tspan><tspan x="21.76" y="14">eme</tspan><tspan x="42.67" y="14">n</tspan><tspan x="48.71" y="14">t</tspan></text><rect class="cls-1" x="418.97" y="318.7" width="4.37" height="4.37" rx="2.19" ry="2.19"/><rect class="cls-1" x="418.97" y="343.7" width="4.37" height="4.38" rx="2.19" ry="2.19"/><line class="cls-6" x1="421.16" y1="345.89" x2="421.16" y2="320.89"/><text class="cls-7" transform="translate(377.12 365.06)">M<tspan x="8.85" y="0">o</tspan><tspan x="14.83" y="0">r</tspan><tspan x="18.57" y="0">e</tspan><tspan x="24.47" y="0"> </tspan><tspan x="26.66" y="0">then 2</tspan><tspan x="58.02" y="0">0,</tspan><tspan x="67.15" y="0">000</tspan><tspan x="-1.09" y="14">p</tspan><tspan x="4.87" y="14">r</tspan><tspan x="8.61" y="14">oducts a</tspan><tspan x="50.26" y="14">r</tspan><tspan x="54" y="14">e listed</tspan></text><rect class="cls-1" x="419.16" y="386.67" width="4.37" height="4.38" rx="2.19" ry="2.19"/><rect class="cls-1" x="419.16" y="411.67" width="4.37" height="4.38" rx="2.19" ry="2.19"/><line class="cls-6" x1="421.35" y1="413.86" x2="421.35" y2="388.86"/><text class="cls-7" transform="translate(370.98 430.58)">L<tspan x="5.76" y="0">oyalty and </tspan><tspan x="59.12" y="0">R</tspan><tspan x="66.19" y="0">e</tspan><tspan x="72.08" y="0">f</tspan><tspan x="76.08" y="0">e</tspan><tspan x="81.98" y="0">r</tspan><tspan x="85.82" y="0">r</tspan><tspan x="89.62" y="0">al </tspan><tspan x="11.33" y="14">p</tspan><tspan x="17.3" y="14">r</tspan><tspan x="21.04" y="14">og</tspan><tspan x="32.96" y="14">r</tspan><tspan x="36.76" y="14">ams added</tspan></text><text class="cls-10" transform="translate(400.97 460.35)">Q2. 2018</text><rect class="cls-1" x="473.97" y="189.05" width="4.38" height="4.38" rx="2.19" ry="2.19"/><line class="cls-6" x1="476.16" y1="241.24" x2="476.16" y2="191.24"/><text class="cls-7" transform="translate(440.42 164.57)">Mar<tspan x="18.5" y="0">k</tspan><tspan x="24.16" y="0">e</tspan><tspan x="30.05" y="0">ting, and</tspan><tspan x="-7.06" y="14">furthe</tspan><tspan x="23.26" y="14">r</tspan><tspan x="26.89" y="14"> </tspan><tspan x="29.3" y="14">e</tspan><tspan x="35.06" y="14">xpansion</tspan></text><text class="cls-10" transform="translate(455.97 147.55)">Q2. 2018</text></svg>